<svg width="442" height="332" viewBox="0 0 442 332" fill="none" xmlns="http://www.w3.org/2000/svg">
<rect x="55" width="332" height="332" rx="166" fill="#D5D5D5"/>
<rect x="95" y="40" width="252" height="252" rx="126" fill="#C5C1C1"/>
<rect x="114" y="59" width="214" height="214" rx="107" fill="#B3AFAF"/>
<rect x="1.5" y="118.5" width="439" height="116" rx="4.5" fill="white"/>
<path d="M182.82 199.9C180.06 199.9 177.4 199.42 174.84 198.46C172.32 197.46 170.08 196.02 168.12 194.14C166.2 192.26 164.64 189.94 163.44 187.18C162.28 184.42 161.7 181.26 161.7 177.7C161.7 174.14 162.3 171 163.5 168.28C164.7 165.52 166.28 163.2 168.24 161.32C170.24 159.44 172.5 158.02 175.02 157.06C177.58 156.06 180.18 155.56 182.82 155.56C185.26 155.56 187.5 155.88 189.54 156.52C191.58 157.16 193.4 158.06 195 159.22C196.6 160.38 197.94 161.8 199.02 163.48C200.14 165.16 200.98 167.02 201.54 169.06L196.08 170.98C195.28 167.74 193.74 165.26 191.46 163.54C189.22 161.82 186.34 160.96 182.82 160.96C180.9 160.96 179.02 161.32 177.18 162.04C175.38 162.72 173.76 163.76 172.32 165.16C170.92 166.56 169.8 168.32 168.96 170.44C168.12 172.52 167.7 174.94 167.7 177.7C167.7 180.46 168.12 182.9 168.96 185.02C169.8 187.1 170.92 188.86 172.32 190.3C173.76 191.7 175.38 192.76 177.18 193.48C179.02 194.16 180.9 194.5 182.82 194.5C184.62 194.5 186.26 194.24 187.74 193.72C189.22 193.2 190.52 192.5 191.64 191.62C192.8 190.7 193.76 189.62 194.52 188.38C195.32 187.1 195.94 185.74 196.38 184.3L201.6 186.22C201.04 188.22 200.2 190.06 199.08 191.74C197.96 193.42 196.6 194.86 195 196.06C193.44 197.26 191.62 198.2 189.54 198.88C187.5 199.56 185.26 199.9 182.82 199.9ZM224.7 161.92V199H218.82V161.92H204.6V156.46H238.92V161.92H224.7ZM269.748 187.12H250.908L246.408 199H240.108L257.028 156.46H263.808L280.728 199H274.368L269.748 187.12ZM253.008 181.66H267.648L260.268 162.58L253.008 181.66Z" fill="url(#paint0_linear_24_17)"/>
<rect x="1.5" y="118.5" width="439" height="116" rx="4.5" stroke="url(#paint1_linear_24_17)" stroke-width="3"/>
<defs>
<linearGradient id="paint0_linear_24_17" x1="220.5" y1="129" x2="220.5" y2="225" gradientUnits="userSpaceOnUse">
<stop/>
<stop offset="0.572917" stop-opacity="0.4"/>
<stop offset="1" stop-opacity="0.9"/>
</linearGradient>
<linearGradient id="paint1_linear_24_17" x1="221" y1="117" x2="221" y2="236" gradientUnits="userSpaceOnUse">
<stop/>
<stop offset="0.572917" stop-opacity="0"/>
<stop offset="1" stop-opacity="0.9"/>
</linearGradient>
</defs>
</svg>
