<svg width="698" height="744" viewBox="0 0 698 744" fill="none" xmlns="http://www.w3.org/2000/svg">
<rect x="0.5" y="0.5" width="598" height="598" fill="white"/>
<rect x="38" y="62" width="99" height="34" rx="5" fill="#DFDFDF" fill-opacity="0.3"/>
<rect x="38.5" y="62.5" width="98" height="33" rx="4.5" stroke="url(#paint0_linear_3_153)" stroke-opacity="0.3"/>
<rect x="148" y="62" width="334" height="34" rx="5" fill="#DFDFDF" fill-opacity="0.3"/>
<rect x="148.5" y="62.5" width="333" height="33" rx="4.5" stroke="url(#paint1_linear_3_153)" stroke-opacity="0.3"/>
<rect x="493" y="62" width="74" height="34" rx="5" fill="#DFDFDF" fill-opacity="0.3"/>
<rect x="493.5" y="62.5" width="73" height="33" rx="4.5" stroke="url(#paint2_linear_3_153)" stroke-opacity="0.3"/>
<rect x="38" y="137" width="234" height="34" rx="5" fill="#DFDFDF" fill-opacity="0.3"/>
<rect x="38.5" y="137.5" width="233" height="33" rx="4.5" stroke="url(#paint3_linear_3_153)" stroke-opacity="0.3"/>
<rect x="281" y="137" width="286" height="34" rx="5" fill="#DFDFDF" fill-opacity="0.3"/>
<rect x="281.5" y="137.5" width="285" height="33" rx="4.5" stroke="url(#paint4_linear_3_153)" stroke-opacity="0.3"/>
<rect x="38" y="212" width="199" height="34" rx="5" fill="#DFDFDF" fill-opacity="0.3"/>
<rect x="38.5" y="212.5" width="198" height="33" rx="4.5" stroke="url(#paint5_linear_3_153)" stroke-opacity="0.3"/>
<rect x="247" y="212" width="88" height="34" rx="5" fill="#DFDFDF" fill-opacity="0.3"/>
<rect x="247.5" y="212.5" width="87" height="33" rx="4.5" stroke="url(#paint6_linear_3_153)" stroke-opacity="0.3"/>
<rect x="345" y="212" width="137" height="34" rx="5" fill="#DFDFDF" fill-opacity="0.3"/>
<rect x="345.5" y="212.5" width="136" height="33" rx="4.5" stroke="url(#paint7_linear_3_153)" stroke-opacity="0.3"/>
<rect x="492" y="212" width="75" height="34" rx="5" fill="#DFDFDF" fill-opacity="0.3"/>
<rect x="492.5" y="212.5" width="74" height="33" rx="4.5" stroke="url(#paint8_linear_3_153)" stroke-opacity="0.3"/>
<rect x="38" y="287" width="307" height="34" rx="5" fill="#DFDFDF" fill-opacity="0.3"/>
<rect x="38.5" y="287.5" width="306" height="33" rx="4.5" stroke="url(#paint9_linear_3_153)" stroke-opacity="0.3"/>
<rect x="353" y="287" width="91" height="34" rx="5" fill="#DFDFDF" fill-opacity="0.3"/>
<rect x="353.5" y="287.5" width="90" height="33" rx="4.5" stroke="url(#paint10_linear_3_153)" stroke-opacity="0.3"/>
<rect x="452" y="287" width="115" height="34" rx="5" fill="#DFDFDF" fill-opacity="0.3"/>
<rect x="452.5" y="287.5" width="114" height="33" rx="4.5" stroke="url(#paint11_linear_3_153)" stroke-opacity="0.3"/>
<rect x="38" y="362" width="225" height="34" rx="5" fill="#DFDFDF" fill-opacity="0.3"/>
<rect x="38.5" y="362.5" width="224" height="33" rx="4.5" stroke="url(#paint12_linear_3_153)" stroke-opacity="0.3"/>
<rect x="272" y="362" width="140" height="34" rx="5" fill="#DFDFDF" fill-opacity="0.3"/>
<rect x="272.5" y="362.5" width="139" height="33" rx="4.5" stroke="url(#paint13_linear_3_153)" stroke-opacity="0.3"/>
<rect x="426" y="362" width="141" height="34" rx="5" fill="#DFDFDF" fill-opacity="0.3"/>
<rect x="426.5" y="362.5" width="140" height="33" rx="4.5" stroke="url(#paint14_linear_3_153)" stroke-opacity="0.3"/>
<rect x="0.5" y="0.5" width="598" height="598" stroke="url(#paint15_linear_3_153)"/>
<rect x="99.5" y="145.5" width="598" height="598" fill="white"/>
<rect x="137.5" y="207.5" width="98" height="33" rx="4.5" fill="#DFDFDF"/>
<rect x="137.5" y="207.5" width="98" height="33" rx="4.5" stroke="url(#paint16_linear_3_153)"/>
<rect x="247.5" y="207.5" width="123" height="33" rx="4.5" fill="#DFDFDF"/>
<rect x="247.5" y="207.5" width="123" height="33" rx="4.5" stroke="url(#paint17_linear_3_153)"/>
<rect x="382.5" y="207.5" width="198" height="33" rx="4.5" fill="#DFDFDF"/>
<rect x="382.5" y="207.5" width="198" height="33" rx="4.5" stroke="url(#paint18_linear_3_153)"/>
<rect x="592.5" y="207.5" width="73" height="33" rx="4.5" fill="#DFDFDF"/>
<rect x="592.5" y="207.5" width="73" height="33" rx="4.5" stroke="url(#paint19_linear_3_153)"/>
<rect x="137.5" y="282.5" width="233" height="33" rx="4.5" fill="#DFDFDF"/>
<rect x="137.5" y="282.5" width="233" height="33" rx="4.5" stroke="url(#paint20_linear_3_153)"/>
<rect x="380.5" y="282.5" width="285" height="33" rx="4.5" fill="#DFDFDF"/>
<rect x="380.5" y="282.5" width="285" height="33" rx="4.5" stroke="url(#paint21_linear_3_153)"/>
<rect x="137.5" y="357.5" width="198" height="33" rx="4.5" fill="#DFDFDF"/>
<rect x="137.5" y="357.5" width="198" height="33" rx="4.5" stroke="url(#paint22_linear_3_153)"/>
<rect x="346.5" y="357.5" width="87" height="33" rx="4.5" fill="#DFDFDF"/>
<rect x="346.5" y="357.5" width="87" height="33" rx="4.5" stroke="url(#paint23_linear_3_153)"/>
<rect x="444.5" y="357.5" width="136" height="33" rx="4.5" fill="#DFDFDF"/>
<rect x="444.5" y="357.5" width="136" height="33" rx="4.5" stroke="url(#paint24_linear_3_153)"/>
<rect x="591.5" y="357.5" width="74" height="33" rx="4.5" fill="#DFDFDF"/>
<rect x="591.5" y="357.5" width="74" height="33" rx="4.5" stroke="url(#paint25_linear_3_153)"/>
<rect x="137.5" y="432.5" width="306" height="33" rx="4.5" fill="#DFDFDF"/>
<rect x="137.5" y="432.5" width="306" height="33" rx="4.5" stroke="url(#paint26_linear_3_153)"/>
<rect x="452.5" y="432.5" width="90" height="33" rx="4.5" fill="#DFDFDF"/>
<rect x="452.5" y="432.5" width="90" height="33" rx="4.5" stroke="url(#paint27_linear_3_153)"/>
<rect x="551.5" y="432.5" width="114" height="33" rx="4.5" fill="#DFDFDF"/>
<rect x="551.5" y="432.5" width="114" height="33" rx="4.5" stroke="url(#paint28_linear_3_153)"/>
<rect x="137.5" y="507.5" width="224" height="33" rx="4.5" fill="#DFDFDF"/>
<rect x="137.5" y="507.5" width="224" height="33" rx="4.5" stroke="url(#paint29_linear_3_153)"/>
<rect x="371.5" y="507.5" width="139" height="33" rx="4.5" fill="#DFDFDF"/>
<rect x="371.5" y="507.5" width="139" height="33" rx="4.5" stroke="url(#paint30_linear_3_153)"/>
<rect x="525.5" y="507.5" width="140" height="33" rx="4.5" fill="#DFDFDF"/>
<rect x="525.5" y="507.5" width="140" height="33" rx="4.5" stroke="url(#paint31_linear_3_153)"/>
<rect x="99.5" y="145.5" width="598" height="598" stroke="url(#paint32_linear_3_153)"/>
<defs>
<linearGradient id="paint0_linear_3_153" x1="87.5" y1="62" x2="87.5" y2="96" gradientUnits="userSpaceOnUse">
<stop stop-color="#555555"/>
<stop offset="0.572917" stop-opacity="0"/>
<stop offset="1" stop-color="#555555" stop-opacity="0.9"/>
</linearGradient>
<linearGradient id="paint1_linear_3_153" x1="315" y1="62" x2="315" y2="96" gradientUnits="userSpaceOnUse">
<stop stop-color="#555555"/>
<stop offset="0.572917" stop-opacity="0"/>
<stop offset="1" stop-color="#555555" stop-opacity="0.9"/>
</linearGradient>
<linearGradient id="paint2_linear_3_153" x1="530" y1="62" x2="530" y2="96" gradientUnits="userSpaceOnUse">
<stop stop-color="#555555"/>
<stop offset="0.572917" stop-opacity="0"/>
<stop offset="1" stop-color="#555555" stop-opacity="0.9"/>
</linearGradient>
<linearGradient id="paint3_linear_3_153" x1="155" y1="137" x2="155" y2="171" gradientUnits="userSpaceOnUse">
<stop stop-color="#555555"/>
<stop offset="0.572917" stop-opacity="0"/>
<stop offset="1" stop-color="#555555" stop-opacity="0.9"/>
</linearGradient>
<linearGradient id="paint4_linear_3_153" x1="424" y1="137" x2="424" y2="171" gradientUnits="userSpaceOnUse">
<stop stop-color="#555555"/>
<stop offset="0.572917" stop-opacity="0"/>
<stop offset="1" stop-color="#555555" stop-opacity="0.9"/>
</linearGradient>
<linearGradient id="paint5_linear_3_153" x1="137.5" y1="212" x2="137.5" y2="246" gradientUnits="userSpaceOnUse">
<stop stop-color="#555555"/>
<stop offset="0.572917" stop-opacity="0"/>
<stop offset="1" stop-color="#555555" stop-opacity="0.9"/>
</linearGradient>
<linearGradient id="paint6_linear_3_153" x1="291" y1="212" x2="291" y2="246" gradientUnits="userSpaceOnUse">
<stop stop-color="#555555"/>
<stop offset="0.572917" stop-opacity="0"/>
<stop offset="1" stop-color="#555555" stop-opacity="0.9"/>
</linearGradient>
<linearGradient id="paint7_linear_3_153" x1="413.5" y1="212" x2="413.5" y2="246" gradientUnits="userSpaceOnUse">
<stop stop-color="#555555"/>
<stop offset="0.572917" stop-opacity="0"/>
<stop offset="1" stop-color="#555555" stop-opacity="0.9"/>
</linearGradient>
<linearGradient id="paint8_linear_3_153" x1="529.5" y1="212" x2="529.5" y2="246" gradientUnits="userSpaceOnUse">
<stop stop-color="#555555"/>
<stop offset="0.572917" stop-opacity="0"/>
<stop offset="1" stop-color="#555555" stop-opacity="0.9"/>
</linearGradient>
<linearGradient id="paint9_linear_3_153" x1="191.5" y1="287" x2="191.5" y2="321" gradientUnits="userSpaceOnUse">
<stop stop-color="#555555"/>
<stop offset="0.572917" stop-opacity="0"/>
<stop offset="1" stop-color="#555555" stop-opacity="0.9"/>
</linearGradient>
<linearGradient id="paint10_linear_3_153" x1="398.5" y1="287" x2="398.5" y2="321" gradientUnits="userSpaceOnUse">
<stop stop-color="#555555"/>
<stop offset="0.572917" stop-opacity="0"/>
<stop offset="1" stop-color="#555555" stop-opacity="0.9"/>
</linearGradient>
<linearGradient id="paint11_linear_3_153" x1="509.5" y1="287" x2="509.5" y2="321" gradientUnits="userSpaceOnUse">
<stop stop-color="#555555"/>
<stop offset="0.572917" stop-opacity="0"/>
<stop offset="1" stop-color="#555555" stop-opacity="0.9"/>
</linearGradient>
<linearGradient id="paint12_linear_3_153" x1="150.5" y1="362" x2="150.5" y2="396" gradientUnits="userSpaceOnUse">
<stop stop-color="#555555"/>
<stop offset="0.572917" stop-opacity="0"/>
<stop offset="1" stop-color="#555555" stop-opacity="0.9"/>
</linearGradient>
<linearGradient id="paint13_linear_3_153" x1="342" y1="362" x2="342" y2="396" gradientUnits="userSpaceOnUse">
<stop stop-color="#555555"/>
<stop offset="0.572917" stop-opacity="0"/>
<stop offset="1" stop-color="#555555" stop-opacity="0.9"/>
</linearGradient>
<linearGradient id="paint14_linear_3_153" x1="496.5" y1="362" x2="496.5" y2="396" gradientUnits="userSpaceOnUse">
<stop stop-color="#555555"/>
<stop offset="0.572917" stop-opacity="0"/>
<stop offset="1" stop-color="#555555" stop-opacity="0.9"/>
</linearGradient>
<linearGradient id="paint15_linear_3_153" x1="299.5" y1="0" x2="299.5" y2="599" gradientUnits="userSpaceOnUse">
<stop/>
<stop offset="0.552083" stop-opacity="0"/>
<stop offset="1"/>
</linearGradient>
<linearGradient id="paint16_linear_3_153" x1="186.5" y1="207" x2="186.5" y2="241" gradientUnits="userSpaceOnUse">
<stop stop-color="#555555"/>
<stop offset="0.572917" stop-opacity="0"/>
<stop offset="1" stop-color="#555555" stop-opacity="0.9"/>
</linearGradient>
<linearGradient id="paint17_linear_3_153" x1="309" y1="207" x2="309" y2="241" gradientUnits="userSpaceOnUse">
<stop stop-color="#555555"/>
<stop offset="0.572917" stop-opacity="0"/>
<stop offset="1" stop-color="#555555" stop-opacity="0.9"/>
</linearGradient>
<linearGradient id="paint18_linear_3_153" x1="481.5" y1="207" x2="481.5" y2="241" gradientUnits="userSpaceOnUse">
<stop stop-color="#555555"/>
<stop offset="0.572917" stop-opacity="0"/>
<stop offset="1" stop-color="#555555" stop-opacity="0.9"/>
</linearGradient>
<linearGradient id="paint19_linear_3_153" x1="629" y1="207" x2="629" y2="241" gradientUnits="userSpaceOnUse">
<stop stop-color="#555555"/>
<stop offset="0.572917" stop-opacity="0"/>
<stop offset="1" stop-color="#555555" stop-opacity="0.9"/>
</linearGradient>
<linearGradient id="paint20_linear_3_153" x1="254" y1="282" x2="254" y2="316" gradientUnits="userSpaceOnUse">
<stop stop-color="#555555"/>
<stop offset="0.572917" stop-opacity="0"/>
<stop offset="1" stop-color="#555555" stop-opacity="0.9"/>
</linearGradient>
<linearGradient id="paint21_linear_3_153" x1="523" y1="282" x2="523" y2="316" gradientUnits="userSpaceOnUse">
<stop stop-color="#555555"/>
<stop offset="0.572917" stop-opacity="0"/>
<stop offset="1" stop-color="#555555" stop-opacity="0.9"/>
</linearGradient>
<linearGradient id="paint22_linear_3_153" x1="236.5" y1="357" x2="236.5" y2="391" gradientUnits="userSpaceOnUse">
<stop stop-color="#555555"/>
<stop offset="0.572917" stop-opacity="0"/>
<stop offset="1" stop-color="#555555" stop-opacity="0.9"/>
</linearGradient>
<linearGradient id="paint23_linear_3_153" x1="390" y1="357" x2="390" y2="391" gradientUnits="userSpaceOnUse">
<stop stop-color="#555555"/>
<stop offset="0.572917" stop-opacity="0"/>
<stop offset="1" stop-color="#555555" stop-opacity="0.9"/>
</linearGradient>
<linearGradient id="paint24_linear_3_153" x1="512.5" y1="357" x2="512.5" y2="391" gradientUnits="userSpaceOnUse">
<stop stop-color="#555555"/>
<stop offset="0.572917" stop-opacity="0"/>
<stop offset="1" stop-color="#555555" stop-opacity="0.9"/>
</linearGradient>
<linearGradient id="paint25_linear_3_153" x1="628.5" y1="357" x2="628.5" y2="391" gradientUnits="userSpaceOnUse">
<stop stop-color="#555555"/>
<stop offset="0.572917" stop-opacity="0"/>
<stop offset="1" stop-color="#555555" stop-opacity="0.9"/>
</linearGradient>
<linearGradient id="paint26_linear_3_153" x1="290.5" y1="432" x2="290.5" y2="466" gradientUnits="userSpaceOnUse">
<stop stop-color="#555555"/>
<stop offset="0.572917" stop-opacity="0"/>
<stop offset="1" stop-color="#555555" stop-opacity="0.9"/>
</linearGradient>
<linearGradient id="paint27_linear_3_153" x1="497.5" y1="432" x2="497.5" y2="466" gradientUnits="userSpaceOnUse">
<stop stop-color="#555555"/>
<stop offset="0.572917" stop-opacity="0"/>
<stop offset="1" stop-color="#555555" stop-opacity="0.9"/>
</linearGradient>
<linearGradient id="paint28_linear_3_153" x1="608.5" y1="432" x2="608.5" y2="466" gradientUnits="userSpaceOnUse">
<stop stop-color="#555555"/>
<stop offset="0.572917" stop-opacity="0"/>
<stop offset="1" stop-color="#555555" stop-opacity="0.9"/>
</linearGradient>
<linearGradient id="paint29_linear_3_153" x1="249.5" y1="507" x2="249.5" y2="541" gradientUnits="userSpaceOnUse">
<stop stop-color="#555555"/>
<stop offset="0.572917" stop-opacity="0"/>
<stop offset="1" stop-color="#555555" stop-opacity="0.9"/>
</linearGradient>
<linearGradient id="paint30_linear_3_153" x1="441" y1="507" x2="441" y2="541" gradientUnits="userSpaceOnUse">
<stop stop-color="#555555"/>
<stop offset="0.572917" stop-opacity="0"/>
<stop offset="1" stop-color="#555555" stop-opacity="0.9"/>
</linearGradient>
<linearGradient id="paint31_linear_3_153" x1="595.5" y1="507" x2="595.5" y2="541" gradientUnits="userSpaceOnUse">
<stop stop-color="#555555"/>
<stop offset="0.572917" stop-opacity="0"/>
<stop offset="1" stop-color="#555555" stop-opacity="0.9"/>
</linearGradient>
<linearGradient id="paint32_linear_3_153" x1="398.5" y1="145" x2="398.5" y2="744" gradientUnits="userSpaceOnUse">
<stop/>
<stop offset="0.552083" stop-opacity="0"/>
<stop offset="1"/>
</linearGradient>
</defs>
</svg>
