<svg width="804" height="804" viewBox="0 0 804 804" fill="none" xmlns="http://www.w3.org/2000/svg">
<g clip-path="url(#clip0_3_91)">
<path d="M0 90C0 40.2944 40.2944 0 90 0H714C763.706 0 804 40.2944 804 90V804H0V90Z" fill="white"/>
<rect x="62.5" y="142.5" width="657" height="188" fill="url(#paint0_linear_3_91)" fill-opacity="0.3"/>
<rect x="62.5" y="142.5" width="657" height="188" stroke="url(#paint1_linear_3_91)"/>
<rect x="88.5" y="173.5" width="657" height="188" fill="url(#paint2_linear_3_91)" fill-opacity="0.3"/>
<rect x="88.5" y="173.5" width="657" height="188" stroke="url(#paint3_linear_3_91)"/>
<rect x="62.5" y="654.5" width="657" height="188" fill="url(#paint4_linear_3_91)" fill-opacity="0.3"/>
<rect x="62.5" y="654.5" width="657" height="188" stroke="url(#paint5_linear_3_91)"/>
<rect x="88.5" y="685.5" width="657" height="188" fill="url(#paint6_linear_3_91)" fill-opacity="0.3"/>
<rect x="88.5" y="685.5" width="657" height="188" stroke="url(#paint7_linear_3_91)"/>
<rect x="62.5" y="380.5" width="224" height="224" rx="112" fill="url(#paint8_linear_3_91)" fill-opacity="0.3"/>
<rect x="62.5" y="380.5" width="224" height="224" rx="112" stroke="url(#paint9_linear_3_91)"/>
<rect x="88.5" y="402.5" width="224" height="224" rx="112" fill="url(#paint10_linear_3_91)" fill-opacity="0.3"/>
<rect x="88.5" y="402.5" width="224" height="224" rx="112" stroke="url(#paint11_linear_3_91)"/>
<rect x="328.5" y="380.5" width="224" height="224" rx="112" fill="url(#paint12_linear_3_91)" fill-opacity="0.3"/>
<rect x="328.5" y="380.5" width="224" height="224" rx="112" stroke="url(#paint13_linear_3_91)"/>
<rect x="359.5" y="402.5" width="224" height="224" rx="112" fill="url(#paint14_linear_3_91)" fill-opacity="0.3"/>
<rect x="359.5" y="402.5" width="224" height="224" rx="112" stroke="url(#paint15_linear_3_91)"/>
<rect x="594.5" y="380.5" width="224" height="224" rx="112" fill="url(#paint16_linear_3_91)" fill-opacity="0.3"/>
<rect x="594.5" y="380.5" width="224" height="224" rx="112" stroke="url(#paint17_linear_3_91)"/>
<rect x="625.5" y="411.5" width="224" height="224" rx="112" fill="url(#paint18_linear_3_91)" fill-opacity="0.3"/>
<rect x="625.5" y="411.5" width="224" height="224" rx="112" stroke="url(#paint19_linear_3_91)"/>
</g>
<path d="M90 0.5H714C763.429 0.5 803.5 40.5705 803.5 90V803.5H0.5V90C0.5 40.5705 40.5705 0.5 90 0.5Z" stroke="black"/>
<defs>
<linearGradient id="paint0_linear_3_91" x1="391" y1="142" x2="391" y2="331" gradientUnits="userSpaceOnUse">
<stop stop-color="#C7C7C7"/>
<stop offset="0.541667" stop-opacity="0.5"/>
<stop offset="1" stop-color="#B0B0B0"/>
</linearGradient>
<linearGradient id="paint1_linear_3_91" x1="391" y1="142" x2="391" y2="331" gradientUnits="userSpaceOnUse">
<stop/>
<stop offset="0.546875" stop-opacity="0.1"/>
<stop offset="1"/>
</linearGradient>
<linearGradient id="paint2_linear_3_91" x1="417" y1="173" x2="417" y2="362" gradientUnits="userSpaceOnUse">
<stop stop-color="#C7C7C7"/>
<stop offset="0.541667" stop-opacity="0.5"/>
<stop offset="1" stop-color="#B0B0B0"/>
</linearGradient>
<linearGradient id="paint3_linear_3_91" x1="417" y1="173" x2="417" y2="362" gradientUnits="userSpaceOnUse">
<stop/>
<stop offset="0.546875" stop-opacity="0.1"/>
<stop offset="1"/>
</linearGradient>
<linearGradient id="paint4_linear_3_91" x1="391" y1="654" x2="391" y2="843" gradientUnits="userSpaceOnUse">
<stop stop-color="#C7C7C7"/>
<stop offset="0.541667" stop-opacity="0.5"/>
<stop offset="1" stop-color="#B0B0B0"/>
</linearGradient>
<linearGradient id="paint5_linear_3_91" x1="391" y1="654" x2="391" y2="843" gradientUnits="userSpaceOnUse">
<stop/>
<stop offset="0.546875" stop-opacity="0.1"/>
<stop offset="1"/>
</linearGradient>
<linearGradient id="paint6_linear_3_91" x1="417" y1="685" x2="417" y2="874" gradientUnits="userSpaceOnUse">
<stop stop-color="#C7C7C7"/>
<stop offset="0.541667" stop-opacity="0.5"/>
<stop offset="1" stop-color="#B0B0B0"/>
</linearGradient>
<linearGradient id="paint7_linear_3_91" x1="417" y1="685" x2="417" y2="874" gradientUnits="userSpaceOnUse">
<stop/>
<stop offset="0.546875" stop-opacity="0.1"/>
<stop offset="1"/>
</linearGradient>
<linearGradient id="paint8_linear_3_91" x1="174.5" y1="380" x2="174.5" y2="605" gradientUnits="userSpaceOnUse">
<stop stop-color="#C7C7C7"/>
<stop offset="0.541667" stop-opacity="0.5"/>
<stop offset="1" stop-color="#B0B0B0"/>
</linearGradient>
<linearGradient id="paint9_linear_3_91" x1="174.5" y1="380" x2="174.5" y2="605" gradientUnits="userSpaceOnUse">
<stop/>
<stop offset="0.546875" stop-opacity="0.1"/>
<stop offset="1"/>
</linearGradient>
<linearGradient id="paint10_linear_3_91" x1="200.5" y1="402" x2="200.5" y2="627" gradientUnits="userSpaceOnUse">
<stop stop-color="#C7C7C7"/>
<stop offset="0.541667" stop-opacity="0.5"/>
<stop offset="1" stop-color="#B0B0B0"/>
</linearGradient>
<linearGradient id="paint11_linear_3_91" x1="200.5" y1="402" x2="200.5" y2="627" gradientUnits="userSpaceOnUse">
<stop/>
<stop offset="0.546875" stop-opacity="0.1"/>
<stop offset="1"/>
</linearGradient>
<linearGradient id="paint12_linear_3_91" x1="440.5" y1="380" x2="440.5" y2="605" gradientUnits="userSpaceOnUse">
<stop stop-color="#C7C7C7"/>
<stop offset="0.541667" stop-opacity="0.5"/>
<stop offset="1" stop-color="#B0B0B0"/>
</linearGradient>
<linearGradient id="paint13_linear_3_91" x1="440.5" y1="380" x2="440.5" y2="605" gradientUnits="userSpaceOnUse">
<stop/>
<stop offset="0.546875" stop-opacity="0.1"/>
<stop offset="1"/>
</linearGradient>
<linearGradient id="paint14_linear_3_91" x1="471.5" y1="402" x2="471.5" y2="627" gradientUnits="userSpaceOnUse">
<stop stop-color="#C7C7C7"/>
<stop offset="0.541667" stop-opacity="0.5"/>
<stop offset="1" stop-color="#B0B0B0"/>
</linearGradient>
<linearGradient id="paint15_linear_3_91" x1="471.5" y1="402" x2="471.5" y2="627" gradientUnits="userSpaceOnUse">
<stop/>
<stop offset="0.546875" stop-opacity="0.1"/>
<stop offset="1"/>
</linearGradient>
<linearGradient id="paint16_linear_3_91" x1="706.5" y1="380" x2="706.5" y2="605" gradientUnits="userSpaceOnUse">
<stop stop-color="#C7C7C7"/>
<stop offset="0.541667" stop-opacity="0.5"/>
<stop offset="1" stop-color="#B0B0B0"/>
</linearGradient>
<linearGradient id="paint17_linear_3_91" x1="706.5" y1="380" x2="706.5" y2="605" gradientUnits="userSpaceOnUse">
<stop/>
<stop offset="0.546875" stop-opacity="0.1"/>
<stop offset="1"/>
</linearGradient>
<linearGradient id="paint18_linear_3_91" x1="737.5" y1="411" x2="737.5" y2="636" gradientUnits="userSpaceOnUse">
<stop stop-color="#C7C7C7"/>
<stop offset="0.541667" stop-opacity="0.5"/>
<stop offset="1" stop-color="#B0B0B0"/>
</linearGradient>
<linearGradient id="paint19_linear_3_91" x1="737.5" y1="411" x2="737.5" y2="636" gradientUnits="userSpaceOnUse">
<stop/>
<stop offset="0.546875" stop-opacity="0.1"/>
<stop offset="1"/>
</linearGradient>
<clipPath id="clip0_3_91">
<path d="M0 90C0 40.2944 40.2944 0 90 0H714C763.706 0 804 40.2944 804 90V804H0V90Z" fill="white"/>
</clipPath>
</defs>
</svg>
